<?xml version="1.0" encoding="utf-8"?>
<!-- Generator: Adobe Illustrator 19.0.0, SVG Export Plug-In . SVG Version: 6.00 Build 0)  -->
<svg version="1.1" id="Logo" xmlns="http://www.w3.org/2000/svg" xmlns:xlink="http://www.w3.org/1999/xlink" x="0px" y="0px"
	 width="952.941px" height="526.674px" viewBox="0 0 952.941 526.674" style="enable-background:new 0 0 952.941 526.674;"
	 xml:space="preserve">
<style type="text/css">
	.st0{fill:#FFFFFF;}
</style>
<g id="XMLID_3_">
	<g id="XMLID_65_">
		<path id="XMLID_107_" class="st0" d="M491.198,39.381l-28.111,100.625h-23.787l-18.885-71.649l-19.75,71.649l-23.643,0.145
			l-27.102-100.77h21.624l17.732,78.135l20.471-78.135h22.49l19.317,77.703l17.876-77.703H491.198z"/>
		<path id="XMLID_104_" class="st0" d="M519.019,136.185c-6.152-3.41-10.981-8.239-14.488-14.488
			c-3.51-6.246-5.262-13.454-5.262-21.624c0-8.168,1.802-15.376,5.406-21.624c3.604-6.248,8.528-11.076,14.777-14.49
			c6.247-3.409,13.213-5.118,20.904-5.118c7.688,0,14.655,1.709,20.903,5.118c6.247,3.414,11.173,8.242,14.777,14.49
			c3.604,6.248,5.407,13.456,5.407,21.624c0,8.17-1.852,15.378-5.551,21.624c-3.701,6.25-8.7,11.078-14.993,14.488
			c-6.297,3.414-13.335,5.119-21.12,5.119C532.089,141.305,525.169,139.599,519.019,136.185z M550.086,121.05
			c3.219-1.778,5.789-4.445,7.713-8.002c1.921-3.555,2.882-7.879,2.882-12.975c0-7.591-1.995-13.43-5.982-17.515
			c-3.99-4.085-8.866-6.128-14.633-6.128s-10.596,2.043-14.488,6.128s-5.839,9.924-5.839,17.515c0,7.593,1.897,13.432,5.694,17.515
			c3.796,4.087,8.578,6.127,14.344,6.127C543.43,123.715,546.866,122.829,550.086,121.05z"/>
		<path id="XMLID_102_" class="st0" d="M719.187,67.997c6.005,6.007,9.01,14.392,9.01,25.155v46.853h-20.183V95.892
			c0-6.246-1.586-11.029-4.757-14.344c-3.172-3.316-7.497-4.975-12.975-4.975c-5.478,0-9.828,1.658-13.047,4.975
			c-3.221,3.315-4.83,8.098-4.83,14.344v44.114h-20.183V95.892c0-6.246-1.586-11.029-4.758-14.344
			c-3.171-3.316-7.496-4.975-12.975-4.975c-5.575,0-9.972,1.658-13.191,4.975c-3.221,3.315-4.829,8.098-4.829,14.344v44.114h-20.183
			V60.14h20.183v9.658c2.595-3.363,5.933-6.005,10.019-7.928c4.084-1.922,8.578-2.884,13.479-2.884
			c6.247,0,11.822,1.322,16.723,3.964c4.901,2.646,8.697,6.416,11.389,11.318c2.595-4.613,6.366-8.313,11.316-11.101
			c4.949-2.787,10.308-4.181,16.075-4.181C705.276,58.987,713.18,61.992,719.187,67.997z"/>
		<path id="XMLID_99_" class="st0" d="M821.037,106.127h-58.386c0.479,5.767,2.498,10.286,6.054,13.551
			c3.555,3.269,7.93,4.902,13.119,4.902c7.496,0,12.83-3.219,16.002-9.66h21.768c-2.306,7.691-6.728,14.009-13.263,18.958
			c-6.536,4.951-14.56,7.425-24.075,7.425c-7.69,0-14.585-1.705-20.687-5.119c-6.105-3.41-10.862-8.239-14.272-14.488
			c-3.412-6.246-5.118-13.454-5.118-21.624c0-8.264,1.68-15.521,5.045-21.768c3.363-6.246,8.073-11.051,14.128-14.416
			c6.054-3.363,13.022-5.047,20.903-5.047c7.591,0,14.391,1.637,20.4,4.902c6.005,3.268,10.668,7.906,13.984,13.911
			c3.316,6.007,4.974,12.902,4.974,20.687C821.614,101.227,821.42,103.822,821.037,106.127z M800.71,92.576
			c-0.097-5.19-1.971-9.345-5.622-12.47c-3.654-3.121-8.123-4.685-13.408-4.685c-4.998,0-9.203,1.515-12.614,4.542
			c-3.412,3.027-5.503,7.231-6.271,12.613H800.71z"/>
		<path id="XMLID_97_" class="st0" d="M903.64,67.997c5.862,6.007,8.794,14.392,8.794,25.155v46.853h-20.183V95.892
			c0-6.344-1.586-11.221-4.758-14.633c-3.171-3.41-7.496-5.118-12.975-5.118c-5.575,0-9.972,1.707-13.191,5.118
			c-3.221,3.412-4.829,8.289-4.829,14.633v44.114h-20.183V60.14h20.183v9.948c2.69-3.461,6.127-6.175,10.307-8.146
			c4.181-1.967,8.769-2.955,13.768-2.955C890.089,58.987,897.777,61.992,903.64,67.997z"/>
		<path id="XMLID_95_" class="st0" d="M358.496,235.946c4.469-7.832,10.57-13.933,18.308-18.307
			c7.735-4.373,16.41-6.561,26.022-6.561c11.245,0,21.095,2.884,29.553,8.651c8.456,5.767,14.367,13.745,17.732,23.931h-23.211
			c-2.307-4.805-5.55-8.409-9.731-10.814c-4.181-2.4-9.011-3.604-14.489-3.604c-5.863,0-11.078,1.371-15.641,4.108
			c-4.566,2.74-8.123,6.609-10.668,11.606c-2.548,4.998-3.82,10.863-3.82,17.588c0,6.631,1.272,12.47,3.82,17.515
			c2.545,5.047,6.102,8.938,10.668,11.678c4.563,2.74,9.778,4.108,15.641,4.108c5.478,0,10.308-1.226,14.489-3.676
			s7.424-6.078,9.731-10.884h23.211c-3.365,10.286-9.251,18.286-17.66,24.004c-8.411,5.72-18.287,8.577-29.626,8.577
			c-9.612,0-18.287-2.184-26.022-6.559c-7.738-4.372-13.839-10.452-18.308-18.237c-4.469-7.785-6.703-16.626-6.703-26.526
			C351.793,252.648,354.027,243.782,358.496,235.946z"/>
		<path id="XMLID_92_" class="st0" d="M482.114,309.181c-6.152-3.41-10.981-8.239-14.488-14.488
			c-3.51-6.246-5.262-13.454-5.262-21.624c0-8.168,1.802-15.376,5.406-21.624c3.604-6.248,8.528-11.076,14.777-14.49
			c6.247-3.409,13.213-5.118,20.904-5.118c7.688,0,14.655,1.709,20.903,5.118c6.247,3.414,11.173,8.242,14.777,14.49
			c3.604,6.248,5.407,13.456,5.407,21.624c0,8.17-1.852,15.378-5.551,21.624c-3.701,6.25-8.7,11.078-14.993,14.488
			c-6.297,3.414-13.335,5.119-21.12,5.119C495.184,314.3,488.264,312.595,482.114,309.181z M513.181,294.045
			c3.219-1.778,5.789-4.445,7.713-8.002c1.921-3.555,2.882-7.879,2.882-12.975c0-7.591-1.995-13.43-5.982-17.515
			c-3.99-4.085-8.866-6.128-14.633-6.128c-5.767,0-10.596,2.043-14.488,6.128c-3.892,4.085-5.839,9.924-5.839,17.515
			c0,7.593,1.897,13.432,5.694,17.515c3.796,4.087,8.578,6.127,14.344,6.127C506.525,296.711,509.961,295.825,513.181,294.045z"/>
		<path id="XMLID_89_" class="st0" d="M559.023,251.301c3.219-6.246,7.616-11.051,13.191-14.416
			c5.573-3.363,11.772-5.047,18.598-5.047c5.19,0,10.138,1.132,14.848,3.389c4.708,2.259,8.457,5.262,11.245,9.009v-37.913h20.471
			v106.68h-20.471v-11.821c-2.5,3.942-6.007,7.114-10.523,9.514c-4.519,2.401-9.756,3.606-15.714,3.606
			c-6.728,0-12.88-1.731-18.453-5.192c-5.575-3.459-9.972-8.336-13.191-14.631c-3.221-6.295-4.829-13.528-4.829-21.698
			C554.194,264.707,555.801,257.548,559.023,251.301z M614.166,260.454c-1.924-3.506-4.519-6.199-7.785-8.072
			c-3.269-1.875-6.776-2.812-10.524-2.812c-3.748,0-7.208,0.915-10.38,2.74c-3.172,1.826-5.744,4.494-7.712,8.002
			c-1.971,3.508-2.956,7.664-2.956,12.468c0,4.808,0.985,9.011,2.956,12.615c1.968,3.604,4.563,6.369,7.785,8.289
			c3.219,1.924,6.654,2.884,10.307,2.884c3.749,0,7.256-0.939,10.524-2.812c3.266-1.873,5.861-4.564,7.785-8.072
			c1.921-3.508,2.882-7.714,2.882-12.615C617.048,268.167,616.087,263.964,614.166,260.454z"/>
		<path id="XMLID_86_" class="st0" d="M730.792,279.123h-58.386c0.479,5.767,2.498,10.286,6.054,13.551
			c3.555,3.269,7.929,4.902,13.119,4.902c7.496,0,12.83-3.219,16.002-9.66h21.768c-2.307,7.691-6.728,14.009-13.263,18.958
			c-6.536,4.951-14.56,7.425-24.075,7.425c-7.69,0-14.585-1.705-20.687-5.119c-6.105-3.41-10.862-8.239-14.272-14.488
			c-3.412-6.246-5.118-13.454-5.118-21.624c0-8.264,1.68-15.521,5.045-21.768c3.363-6.246,8.073-11.051,14.128-14.416
			c6.054-3.363,13.022-5.047,20.903-5.047c7.591,0,14.391,1.637,20.4,4.902c6.005,3.268,10.668,7.906,13.984,13.911
			c3.316,6.007,4.974,12.902,4.974,20.687C731.369,274.223,731.174,276.818,730.792,279.123z M710.465,265.572
			c-0.097-5.19-1.971-9.345-5.622-12.47c-3.654-3.121-8.123-4.685-13.408-4.685c-4.998,0-9.203,1.515-12.614,4.542
			c-3.412,3.027-5.503,7.231-6.271,12.613H710.465z"/>
		<path id="XMLID_84_" class="st0" d="M776.418,235.586c4.181-2.401,8.96-3.604,14.344-3.604v21.192h-5.334
			c-6.344,0-11.126,1.492-14.344,4.47c-3.221,2.98-4.829,8.17-4.829,15.57v39.788h-20.183v-79.866h20.183v12.398
			C768.85,241.306,772.237,237.99,776.418,235.586z"/>
		<path id="XMLID_82_" class="st0" d="M817.287,310.767c-5.19-2.353-9.298-5.55-12.326-9.586c-3.027-4.036-4.685-8.506-4.974-13.407
			h20.327c0.383,3.076,1.897,5.622,4.542,7.64c2.642,2.018,5.933,3.027,9.874,3.027c3.844,0,6.848-0.769,9.011-2.307
			c2.162-1.535,3.243-3.506,3.243-5.91c0-2.595-1.322-4.541-3.964-5.839c-2.645-1.297-6.848-2.714-12.615-4.253
			c-5.96-1.441-10.837-2.929-14.632-4.468c-3.798-1.537-7.064-3.893-9.804-7.063c-2.739-3.172-4.108-7.448-4.108-12.832
			c0-4.42,1.273-8.456,3.82-12.108c2.546-3.653,6.2-6.535,10.957-8.651c4.758-2.112,10.355-3.172,16.795-3.172
			c9.515,0,17.107,2.38,22.778,7.137c5.669,4.756,8.794,11.172,9.371,19.246h-19.318c-0.288-3.172-1.61-5.694-3.965-7.57
			c-2.356-1.873-5.503-2.81-9.442-2.81c-3.654,0-6.465,0.673-8.434,2.018c-1.971,1.347-2.955,3.221-2.955,5.622
			c0,2.691,1.344,4.734,4.036,6.127c2.69,1.394,6.871,2.812,12.542,4.253c5.766,1.441,10.523,2.933,14.272,4.468
			c3.748,1.539,6.992,3.917,9.731,7.136c2.74,3.222,4.156,7.476,4.253,12.759c0,4.613-1.275,8.747-3.82,12.398
			c-2.548,3.653-6.2,6.512-10.957,8.577c-4.758,2.067-10.308,3.101-16.651,3.101C828.338,314.3,822.477,313.121,817.287,310.767z"/>
		<path id="XMLID_80_" class="st0" d="M442.759,485.996h-20.183l-45.7-69.054v69.054h-20.183v-100.77h20.183l45.7,69.199v-69.199
			h20.183V485.996z"/>
		<path id="XMLID_77_" class="st0" d="M536.319,452.117h-58.386c0.479,5.767,2.498,10.286,6.054,13.551
			c3.555,3.269,7.929,4.902,13.119,4.902c7.496,0,12.83-3.219,16.002-9.66h21.768c-2.307,7.691-6.728,14.009-13.263,18.958
			c-6.536,4.951-14.56,7.425-24.075,7.425c-7.69,0-14.585-1.705-20.687-5.119c-6.105-3.41-10.862-8.239-14.272-14.488
			c-3.412-6.246-5.118-13.454-5.118-21.624c0-8.264,1.68-15.521,5.045-21.768c3.363-6.246,8.073-11.051,14.128-14.416
			c6.054-3.363,13.022-5.047,20.903-5.047c7.591,0,14.391,1.637,20.4,4.902c6.005,3.268,10.668,7.906,13.984,13.911
			c3.316,6.007,4.974,12.902,4.974,20.687C536.896,447.217,536.701,449.812,536.319,452.117z M515.991,438.566
			c-0.097-5.19-1.971-9.345-5.622-12.47c-3.654-3.121-8.123-4.685-13.408-4.685c-4.998,0-9.203,1.515-12.614,4.542
			c-3.412,3.027-5.503,7.231-6.271,12.613H515.991z"/>
		<path id="XMLID_75_" class="st0" d="M575.097,422.709v38.635c0,2.693,0.649,4.638,1.947,5.839
			c1.297,1.203,3.482,1.803,6.559,1.803h9.371v17.011h-12.686c-17.011,0-25.517-8.264-25.517-24.796v-38.492h-9.514V406.13h9.514
			v-19.75h20.327v19.75h17.876v16.579H575.097z"/>
		<path id="XMLID_73_" class="st0" d="M718.248,406.13l-23.354,79.866h-21.768l-14.561-55.792l-14.561,55.792h-21.912
			l-23.499-79.866h20.471l14.128,60.837l15.281-60.837h21.336l14.993,60.692l14.128-60.692H718.248z"/>
		<path id="XMLID_70_" class="st0" d="M743.908,482.175c-6.152-3.41-10.981-8.239-14.488-14.488
			c-3.51-6.246-5.262-13.454-5.262-21.624c0-8.168,1.802-15.376,5.406-21.624c3.604-6.248,8.528-11.076,14.777-14.49
			c6.247-3.409,13.213-5.118,20.904-5.118c7.688,0,14.655,1.709,20.903,5.118c6.247,3.414,11.173,8.242,14.777,14.49
			c3.604,6.248,5.407,13.456,5.407,21.624c0,8.17-1.852,15.378-5.551,21.624c-3.701,6.25-8.7,11.078-14.993,14.488
			c-6.297,3.414-13.335,5.119-21.12,5.119C756.978,487.294,750.058,485.589,743.908,482.175z M774.975,467.039
			c3.219-1.778,5.789-4.445,7.713-8.002c1.921-3.555,2.882-7.879,2.882-12.975c0-7.591-1.995-13.43-5.982-17.515
			c-3.99-4.085-8.866-6.128-14.633-6.128s-10.596,2.043-14.488,6.128c-3.892,4.085-5.839,9.924-5.839,17.515
			c0,7.593,1.897,13.432,5.694,17.515c3.796,4.087,8.578,6.127,14.344,6.127C768.319,469.705,771.755,468.819,774.975,467.039z"/>
		<path id="XMLID_68_" class="st0" d="M851.525,408.58c4.181-2.401,8.96-3.604,14.344-3.604v21.192h-5.334
			c-6.344,0-11.126,1.492-14.344,4.47c-3.221,2.98-4.829,8.17-4.829,15.57v39.788h-20.183V406.13h20.183v12.398
			C843.956,414.3,847.344,410.984,851.525,408.58z"/>
		<path id="XMLID_66_" class="st0" d="M926.703,485.996l-27.102-34.022v34.022h-20.183v-106.68h20.183v60.692l26.815-33.879h26.238
			l-35.176,40.078l35.464,39.788H926.703z"/>
	</g>
	<path id="XMLID_58_" class="st0" d="M0,242.186l0-108.523L137.34,0l137.34,133.664v108.523L137.34,107.915L0,242.186z
		 M272.628,413.094l2.047,1.999 M26.936,307.636l-26.934-26.21v107.911c0,8.103,0.705,16.041,2.047,23.757
		c11.251,64.53,67.543,113.58,135.29,113.58c31.937,0,61.343-10.903,84.666-29.204L68.675,348.255L26.936,307.636z M137.338,281.426
		l-59.286,57.703l59.286,57.693l59.286-57.693L137.338,281.426z M247.741,307.636l-41.739,40.619l-59.286,57.693l85.226,82.937
		c20.879-19.836,35.529-46.181,40.686-75.791c1.342-7.716,2.047-15.654,2.047-23.757V281.426L247.741,307.636z M0.002,415.093
		l2.047-1.999"/>
</g>
</svg>
